<mxfile host="65bd71144e">
    <diagram name="Page-1" id="pu9p6Hm0godbQcZ2wYST">
        <mxGraphModel dx="2377" dy="1357" grid="1" gridSize="10" guides="1" tooltips="1" connect="1" arrows="1" fold="1" page="1" pageScale="1" pageWidth="850" pageHeight="1100" math="0" shadow="0">
            <root>
                <mxCell id="0"/>
                <mxCell id="1" parent="0"/>
                <mxCell id="2jzPMqi_0ysNtyOybIIJ-1" style="edgeStyle=orthogonalEdgeStyle;rounded=0;orthogonalLoop=1;jettySize=auto;html=1;exitX=0.5;exitY=0;exitDx=0;exitDy=0;entryX=0.5;entryY=1;entryDx=0;entryDy=0;fontSize=17;" parent="1" source="2jzPMqi_0ysNtyOybIIJ-16" target="2jzPMqi_0ysNtyOybIIJ-7" edge="1">
                    <mxGeometry relative="1" as="geometry">
                        <mxPoint x="339" y="405" as="sourcePoint"/>
                    </mxGeometry>
                </mxCell>
                <mxCell id="2jzPMqi_0ysNtyOybIIJ-7" value="user_ID" style="ellipse;whiteSpace=wrap;html=1;align=center;fontStyle=4;fontSize=17;" parent="1" vertex="1">
                    <mxGeometry x="289" y="335" width="100" height="40" as="geometry"/>
                </mxCell>
                <mxCell id="2jzPMqi_0ysNtyOybIIJ-8" value="username" style="ellipse;whiteSpace=wrap;html=1;align=center;fontSize=17;" parent="1" vertex="1">
                    <mxGeometry x="479" y="315" width="100" height="40" as="geometry"/>
                </mxCell>
                <mxCell id="2jzPMqi_0ysNtyOybIIJ-9" value="password" style="ellipse;whiteSpace=wrap;html=1;align=center;fontSize=17;" parent="1" vertex="1">
                    <mxGeometry x="110" y="345" width="119" height="52" as="geometry"/>
                </mxCell>
                <mxCell id="2jzPMqi_0ysNtyOybIIJ-10" value="full_Name" style="ellipse;whiteSpace=wrap;html=1;align=center;fontSize=17;" parent="1" vertex="1">
                    <mxGeometry x="219" y="247" width="111" height="58" as="geometry"/>
                </mxCell>
                <mxCell id="9" style="edgeStyle=none;html=1;entryX=0.308;entryY=1.01;entryDx=0;entryDy=0;entryPerimeter=0;fontSize=17;" edge="1" parent="1" source="2jzPMqi_0ysNtyOybIIJ-13" target="2jzPMqi_0ysNtyOybIIJ-15">
                    <mxGeometry relative="1" as="geometry"/>
                </mxCell>
                <mxCell id="18" style="edgeStyle=none;html=1;entryX=0.5;entryY=1;entryDx=0;entryDy=0;fontSize=17;" edge="1" parent="1" source="2jzPMqi_0ysNtyOybIIJ-13" target="2jzPMqi_0ysNtyOybIIJ-14">
                    <mxGeometry relative="1" as="geometry"/>
                </mxCell>
                <mxCell id="2jzPMqi_0ysNtyOybIIJ-13" value="role" style="ellipse;whiteSpace=wrap;html=1;align=center;fontSize=17;" parent="1" vertex="1">
                    <mxGeometry x="419" y="255" width="100" height="40" as="geometry"/>
                </mxCell>
                <mxCell id="2jzPMqi_0ysNtyOybIIJ-14" value="admin" style="ellipse;whiteSpace=wrap;html=1;align=center;fontSize=17;" parent="1" vertex="1">
                    <mxGeometry x="685" y="225" width="100" height="40" as="geometry"/>
                </mxCell>
                <mxCell id="2jzPMqi_0ysNtyOybIIJ-15" value="member" style="ellipse;whiteSpace=wrap;html=1;align=center;fontSize=17;" parent="1" vertex="1">
                    <mxGeometry x="490" y="182" width="100" height="40" as="geometry"/>
                </mxCell>
                <mxCell id="5" style="edgeStyle=none;html=1;exitX=0;exitY=0;exitDx=0;exitDy=0;entryX=0.5;entryY=1;entryDx=0;entryDy=0;fontSize=17;" edge="1" parent="1" source="2jzPMqi_0ysNtyOybIIJ-16" target="2jzPMqi_0ysNtyOybIIJ-10">
                    <mxGeometry relative="1" as="geometry"/>
                </mxCell>
                <mxCell id="6" style="edgeStyle=none;html=1;exitX=0.75;exitY=0;exitDx=0;exitDy=0;entryX=0.5;entryY=1;entryDx=0;entryDy=0;fontSize=17;" edge="1" parent="1" source="2jzPMqi_0ysNtyOybIIJ-16" target="2jzPMqi_0ysNtyOybIIJ-13">
                    <mxGeometry relative="1" as="geometry"/>
                </mxCell>
                <mxCell id="13" style="edgeStyle=none;html=1;exitX=1;exitY=0.25;exitDx=0;exitDy=0;fontSize=17;" edge="1" parent="1" source="2jzPMqi_0ysNtyOybIIJ-16" target="2jzPMqi_0ysNtyOybIIJ-8">
                    <mxGeometry relative="1" as="geometry"/>
                </mxCell>
                <mxCell id="19" style="edgeStyle=none;html=1;entryX=1;entryY=1;entryDx=0;entryDy=0;fontSize=21;" edge="1" parent="1" source="2jzPMqi_0ysNtyOybIIJ-16" target="2jzPMqi_0ysNtyOybIIJ-9">
                    <mxGeometry relative="1" as="geometry"/>
                </mxCell>
                <mxCell id="2jzPMqi_0ysNtyOybIIJ-16" value="user" style="whiteSpace=wrap;html=1;align=center;fontSize=17;" parent="1" vertex="1">
                    <mxGeometry x="289" y="405" width="100" height="40" as="geometry"/>
                </mxCell>
                <mxCell id="2jzPMqi_0ysNtyOybIIJ-24" value="post_ID" style="ellipse;whiteSpace=wrap;html=1;align=center;fontStyle=4;fontSize=17;" parent="1" vertex="1">
                    <mxGeometry x="680.5" y="566" width="109" height="51" as="geometry"/>
                </mxCell>
                <mxCell id="2jzPMqi_0ysNtyOybIIJ-25" value="post_Name" style="ellipse;whiteSpace=wrap;html=1;align=center;fontSize=17;" parent="1" vertex="1">
                    <mxGeometry x="660" y="715" width="111" height="52" as="geometry"/>
                </mxCell>
                <mxCell id="2jzPMqi_0ysNtyOybIIJ-26" value="post_Content" style="ellipse;whiteSpace=wrap;html=1;align=center;fontSize=17;" parent="1" vertex="1">
                    <mxGeometry x="710" y="472" width="111" height="55" as="geometry"/>
                </mxCell>
                <mxCell id="2jzPMqi_0ysNtyOybIIJ-31" value="comment_Content" style="ellipse;whiteSpace=wrap;html=1;align=center;fontSize=17;" parent="1" vertex="1">
                    <mxGeometry x="359" y="705" width="171" height="72" as="geometry"/>
                </mxCell>
                <mxCell id="11" style="edgeStyle=none;html=1;exitX=1;exitY=0.5;exitDx=0;exitDy=0;entryX=0.03;entryY=0.75;entryDx=0;entryDy=0;entryPerimeter=0;fontSize=17;" edge="1" parent="1" source="2jzPMqi_0ysNtyOybIIJ-32" target="2jzPMqi_0ysNtyOybIIJ-26">
                    <mxGeometry relative="1" as="geometry"/>
                </mxCell>
                <mxCell id="12" style="edgeStyle=none;html=1;exitX=1;exitY=1;exitDx=0;exitDy=0;entryX=0;entryY=0.5;entryDx=0;entryDy=0;fontSize=17;" edge="1" parent="1" source="2jzPMqi_0ysNtyOybIIJ-32" target="2jzPMqi_0ysNtyOybIIJ-24">
                    <mxGeometry relative="1" as="geometry"/>
                </mxCell>
                <mxCell id="20" style="edgeStyle=none;html=1;exitX=0.75;exitY=1;exitDx=0;exitDy=0;entryX=0.5;entryY=0;entryDx=0;entryDy=0;fontSize=21;" edge="1" parent="1" source="2jzPMqi_0ysNtyOybIIJ-32" target="2jzPMqi_0ysNtyOybIIJ-25">
                    <mxGeometry relative="1" as="geometry"/>
                </mxCell>
                <mxCell id="2jzPMqi_0ysNtyOybIIJ-32" value="post" style="whiteSpace=wrap;html=1;align=center;fontSize=17;" parent="1" vertex="1">
                    <mxGeometry x="469" y="495" width="100" height="40" as="geometry"/>
                </mxCell>
                <mxCell id="2jzPMqi_0ysNtyOybIIJ-36" value="writes" style="shape=rhombus;perimeter=rhombusPerimeter;whiteSpace=wrap;html=1;align=center;fontSize=17;" parent="1" vertex="1">
                    <mxGeometry x="675" y="393" width="120" height="60" as="geometry"/>
                </mxCell>
                <mxCell id="2jzPMqi_0ysNtyOybIIJ-37" value="" style="endArrow=none;html=1;rounded=0;exitX=1;exitY=0.5;exitDx=0;exitDy=0;entryX=0.138;entryY=0.359;entryDx=0;entryDy=0;entryPerimeter=0;fontSize=17;" parent="1" source="2jzPMqi_0ysNtyOybIIJ-16" target="2jzPMqi_0ysNtyOybIIJ-36" edge="1">
                    <mxGeometry relative="1" as="geometry">
                        <mxPoint x="398" y="435" as="sourcePoint"/>
                        <mxPoint x="647.96" y="424.98" as="targetPoint"/>
                    </mxGeometry>
                </mxCell>
                <mxCell id="2jzPMqi_0ysNtyOybIIJ-38" value="1" style="resizable=0;html=1;whiteSpace=wrap;align=right;verticalAlign=bottom;fontSize=17;" parent="2jzPMqi_0ysNtyOybIIJ-37" connectable="0" vertex="1">
                    <mxGeometry x="1" relative="1" as="geometry">
                        <mxPoint x="-281" y="30" as="offset"/>
                    </mxGeometry>
                </mxCell>
                <mxCell id="2jzPMqi_0ysNtyOybIIJ-42" value="writes" style="shape=rhombus;perimeter=rhombusPerimeter;whiteSpace=wrap;html=1;align=center;fontSize=17;" parent="1" vertex="1">
                    <mxGeometry x="65" y="485" width="120" height="60" as="geometry"/>
                </mxCell>
                <mxCell id="2jzPMqi_0ysNtyOybIIJ-43" value="" style="endArrow=none;html=1;rounded=0;exitX=0;exitY=1;exitDx=0;exitDy=0;entryX=1;entryY=0;entryDx=0;entryDy=0;fontSize=17;" parent="1" source="2jzPMqi_0ysNtyOybIIJ-16" target="2jzPMqi_0ysNtyOybIIJ-42" edge="1">
                    <mxGeometry relative="1" as="geometry">
                        <mxPoint x="340" y="608" as="sourcePoint"/>
                        <mxPoint x="199" y="501" as="targetPoint"/>
                    </mxGeometry>
                </mxCell>
                <mxCell id="2jzPMqi_0ysNtyOybIIJ-44" value="1" style="resizable=0;html=1;whiteSpace=wrap;align=right;verticalAlign=bottom;fontSize=17;" parent="2jzPMqi_0ysNtyOybIIJ-43" connectable="0" vertex="1">
                    <mxGeometry x="1" relative="1" as="geometry">
                        <mxPoint x="145" y="-28" as="offset"/>
                    </mxGeometry>
                </mxCell>
                <mxCell id="2jzPMqi_0ysNtyOybIIJ-45" value="" style="endArrow=none;html=1;rounded=0;dashed=1;dashPattern=1 2;entryX=1;entryY=1;entryDx=0;entryDy=0;exitX=0;exitY=0.5;exitDx=0;exitDy=0;fontSize=17;" parent="1" edge="1">
                    <mxGeometry relative="1" as="geometry">
                        <mxPoint x="284" y="630" as="sourcePoint"/>
                        <mxPoint x="150" y="535" as="targetPoint"/>
                    </mxGeometry>
                </mxCell>
                <mxCell id="2jzPMqi_0ysNtyOybIIJ-46" value="N" style="resizable=0;html=1;whiteSpace=wrap;align=right;verticalAlign=bottom;fontSize=17;" parent="2jzPMqi_0ysNtyOybIIJ-45" connectable="0" vertex="1">
                    <mxGeometry x="1" relative="1" as="geometry">
                        <mxPoint x="139" y="90" as="offset"/>
                    </mxGeometry>
                </mxCell>
                <mxCell id="2jzPMqi_0ysNtyOybIIJ-53" value="has" style="shape=rhombus;perimeter=rhombusPerimeter;whiteSpace=wrap;html=1;align=center;fontSize=17;" parent="1" vertex="1">
                    <mxGeometry x="490" y="645" width="120" height="60" as="geometry"/>
                </mxCell>
                <mxCell id="2jzPMqi_0ysNtyOybIIJ-56" value="" style="endArrow=none;html=1;rounded=0;dashed=1;dashPattern=1 2;entryX=0;entryY=0;entryDx=0;entryDy=0;exitX=1;exitY=0.5;exitDx=0;exitDy=0;fontSize=17;" parent="1" target="2jzPMqi_0ysNtyOybIIJ-53" edge="1" source="4">
                    <mxGeometry relative="1" as="geometry">
                        <mxPoint x="435.4000000000001" y="626.4000000000001" as="sourcePoint"/>
                        <mxPoint x="434" y="835" as="targetPoint"/>
                    </mxGeometry>
                </mxCell>
                <mxCell id="2jzPMqi_0ysNtyOybIIJ-57" value="N" style="resizable=0;html=1;whiteSpace=wrap;align=right;verticalAlign=bottom;fontSize=17;" parent="2jzPMqi_0ysNtyOybIIJ-56" connectable="0" vertex="1">
                    <mxGeometry x="1" relative="1" as="geometry">
                        <mxPoint x="-110" y="-35" as="offset"/>
                    </mxGeometry>
                </mxCell>
                <mxCell id="2jzPMqi_0ysNtyOybIIJ-58" value="" style="endArrow=none;html=1;rounded=0;dashed=1;dashPattern=1 2;entryX=0.295;entryY=0.836;entryDx=0;entryDy=0;exitX=0.75;exitY=0;exitDx=0;exitDy=0;entryPerimeter=0;fontSize=17;" parent="1" target="2jzPMqi_0ysNtyOybIIJ-36" edge="1">
                    <mxGeometry relative="1" as="geometry">
                        <mxPoint x="555" y="495" as="sourcePoint"/>
                        <mxPoint x="716" y="438" as="targetPoint"/>
                    </mxGeometry>
                </mxCell>
                <mxCell id="2jzPMqi_0ysNtyOybIIJ-59" value="N" style="resizable=0;html=1;whiteSpace=wrap;align=right;verticalAlign=bottom;fontSize=17;" parent="2jzPMqi_0ysNtyOybIIJ-58" connectable="0" vertex="1">
                    <mxGeometry x="1" relative="1" as="geometry">
                        <mxPoint x="-156" y="52" as="offset"/>
                    </mxGeometry>
                </mxCell>
                <mxCell id="2jzPMqi_0ysNtyOybIIJ-60" value="" style="endArrow=none;html=1;rounded=0;exitX=0.5;exitY=1;exitDx=0;exitDy=0;entryX=0.65;entryY=0.117;entryDx=0;entryDy=0;entryPerimeter=0;fontSize=17;" parent="1" source="2jzPMqi_0ysNtyOybIIJ-32" target="2jzPMqi_0ysNtyOybIIJ-53" edge="1">
                    <mxGeometry relative="1" as="geometry">
                        <mxPoint x="439" y="615" as="sourcePoint"/>
                        <mxPoint x="638" y="757" as="targetPoint"/>
                    </mxGeometry>
                </mxCell>
                <mxCell id="2jzPMqi_0ysNtyOybIIJ-61" value="1" style="resizable=0;html=1;whiteSpace=wrap;align=right;verticalAlign=bottom;fontSize=17;" parent="2jzPMqi_0ysNtyOybIIJ-60" connectable="0" vertex="1">
                    <mxGeometry x="1" relative="1" as="geometry">
                        <mxPoint x="-49" y="-95" as="offset"/>
                    </mxGeometry>
                </mxCell>
                <mxCell id="2" value="Social Media" style="text;strokeColor=none;align=center;fillColor=none;html=1;verticalAlign=middle;whiteSpace=wrap;rounded=0;fontSize=37;fontStyle=4" parent="1" vertex="1">
                    <mxGeometry x="310" y="70" width="250" height="40" as="geometry"/>
                </mxCell>
                <mxCell id="3" value="&lt;span style=&quot;color: rgb(240, 240, 240); font-family: Helvetica; font-size: 17px; font-style: normal; font-variant-ligatures: normal; font-variant-caps: normal; font-weight: 400; letter-spacing: normal; orphans: 2; text-align: center; text-indent: 0px; text-transform: none; widows: 2; word-spacing: 0px; -webkit-text-stroke-width: 0px; background-color: rgb(42, 37, 47); text-decoration-thickness: initial; text-decoration-style: initial; text-decoration-color: initial; float: none; display: inline !important;&quot;&gt;comment_ID&lt;/span&gt;" style="ellipse;whiteSpace=wrap;html=1;align=center;fontStyle=4;fontSize=17;" parent="1" vertex="1">
                    <mxGeometry x="170" y="695" width="159" height="62" as="geometry"/>
                </mxCell>
                <mxCell id="7" style="edgeStyle=none;html=1;exitX=0.25;exitY=1;exitDx=0;exitDy=0;fontSize=17;" edge="1" parent="1" source="4" target="3">
                    <mxGeometry relative="1" as="geometry"/>
                </mxCell>
                <mxCell id="8" style="edgeStyle=none;html=1;entryX=0.454;entryY=0.029;entryDx=0;entryDy=0;entryPerimeter=0;fontSize=17;" edge="1" parent="1" source="4" target="2jzPMqi_0ysNtyOybIIJ-31">
                    <mxGeometry relative="1" as="geometry"/>
                </mxCell>
                <mxCell id="4" value="comment" style="whiteSpace=wrap;html=1;align=center;fontSize=17;" parent="1" vertex="1">
                    <mxGeometry x="289" y="605" width="100" height="40" as="geometry"/>
                </mxCell>
            </root>
        </mxGraphModel>
    </diagram>
</mxfile>